<svg width="52" height="47" viewBox="0 0 52 47" fill="none" xmlns="http://www.w3.org/2000/svg">
<path d="M8.82848e-07 46.7733L20.892 -3.58578e-05L51.0521 41.4075L8.82848e-07 46.7733ZM24.7944 37.1288C25.4519 37.0597 25.9796 36.7794 26.3776 36.2878C26.7757 35.7963 26.9401 35.2218 26.871 34.5643C26.8019 33.9068 26.5216 33.3791 26.0301 32.9811C25.5386 32.583 24.9641 32.4186 24.3066 32.4877C23.6491 32.5568 23.1213 32.8371 22.7233 33.3286C22.3253 33.8201 22.1608 34.3946 22.2299 35.0521C22.299 35.7096 22.5793 36.2374 23.0709 36.6354C23.5624 37.0334 24.1369 37.1979 24.7944 37.1288ZM21.7421 30.411L26.3832 29.9232L25.1637 18.3205L20.5226 18.8083L21.7421 30.411Z" fill="white"/>
</svg>
